<svg xmlns="http://www.w3.org/2000/svg" xmlns:xlink="http://www.w3.org/1999/xlink" width="0" height="0" style="display:none;"><symbol viewBox="0 0 18 18" id="close_circle"><title>close</title><path d="M9 0C4.018 0 0 4.038 0 9s4.018 9 9 9c4.962 0 9-4.038 9-9s-4.038-9-9-9zm3.998 11.27l-1.748 1.728L9 10.748l-2.27 2.25-1.728-1.728L7.252 9l-2.25-2.25L6.73 5.002 9 7.272l2.25-2.27 1.748 1.748L10.728 9l2.27 2.27z" fill-rule="evenodd"/></symbol><symbol viewBox="0 0 12 12" id="close_lines"><title>close</title><path d="M7.573 6l3.718-3.709c.448-.457.448-1.116 0-1.573-.457-.448-1.116-.448-1.573 0l-3.71 3.718L2.3.718C1.843.27 1.175.27.727.718.27 1.175.27 1.834.717 2.29L4.437 6 .718 9.709c-.448.457-.448 1.125.009 1.573.448.457 1.116.457 1.573.009l3.709-3.718 3.709 3.718c.457.448 1.116.448 1.573-.009.448-.448.448-1.116 0-1.573L7.573 6z" fill-rule="evenodd"/></symbol></svg>
